Coordinates
version=1
nRows=13
nColumns=38
inDegrees=no

Units are S.I. units (second, meters, Newtons, ...)
If the header above contains a line with 'inDegrees', this indicates whether rotational values are in degrees (yes) or radians (no).

endheader
time	pelvis_tilt	pelvis_list	pelvis_rotation	pelvis_tx	pelvis_ty	pelvis_tz	hip_flexion_r	hip_adduction_r	hip_rotation_r	knee_angle_r	ankle_angle_r	subtalar_angle_r	mtp_angle_r	hip_flexion_l	hip_adduction_l	hip_rotation_l	knee_angle_l	ankle_angle_l	subtalar_angle_l	mtp_angle_l	lumbar_extension	lumbar_bending	lumbar_rotation	arm_flex_r	arm_add_r	arm_rot_r	elbow_flex_r	pro_sup_r	wrist_flex_r	wrist_dev_r	arm_flex_l	arm_add_l	arm_rot_l	elbow_flex_l	pro_sup_l	wrist_flex_l	wrist_dev_l
1.64167	0.0305593	-0.110961	-0.191992	0.922318	1.01192	-0.612958	0.0177456	0.200004	0.0915727	-0.742413	0.415916	0.0777062	0.000156421	0.68277	-0.231245	-0.191643	-2.07483	0.0900013	0.0199807	0.000309144	-0.399611	0.0473735	0.28733	0.147186	-0.549932	-0.0768524	2.09695	2.05013	0.00322805	-0.0158239	-0.407617	-0.331581	0.190299	1.97735	1.83817	0.0600457	-0.00212831
1.65	0.0206848	-0.0856268	-0.203291	0.923858	1.01657	-0.611022	-0.037928	0.16093	0.102803	-0.682414	0.360995	0.0777062	0.000156421	0.730137	-0.225139	-0.215112	-2.00134	0.0936332	0.0199807	0.000309144	-0.375807	0.0141489	0.306124	0.158458	-0.536615	-0.0737457	2.1405	2.05755	0.00322805	-0.0158239	-0.443082	-0.339325	0.174889	2.00901	1.86035	0.0600457	-0.00212831
1.65833	0.0106023	-0.059024	-0.210851	0.926012	1.02142	-0.60926	-0.0937435	0.11996	0.104333	-0.615993	0.289811	0.0777062	0.000156421	0.770813	-0.215953	-0.239982	-1.91829	0.0953487	0.0199807	0.000309144	-0.350125	-0.0191808	0.318805	0.16746	-0.522029	-0.0661106	2.18282	2.06442	0.00322805	-0.0158239	-0.481793	-0.345113	0.155167	2.0401	1.87899	0.0600457	-0.00212831
1.66667	0.000509317	-0.0322415	-0.213976	0.928667	1.02634	-0.607804	-0.148919	0.0791164	0.0950837	-0.545612	0.204971	0.0777062	0.000156421	0.804762	-0.202786	-0.26364	-1.82627	0.09489	0.0199807	0.000309144	-0.323559	-0.0513908	0.325124	0.174715	-0.506937	-0.0534288	2.22329	2.06975	0.00322805	-0.0158239	-0.52313	-0.348553	0.131708	2.06989	1.89293	0.0600457	-0.00212831
1.675	-0.00938328	-0.00654243	-0.212436	0.931674	1.03119	-0.606753	-0.202562	0.0406413	0.0750736	-0.474714	0.110755	0.0777062	0.000156421	0.83191	-0.185263	-0.28348	-1.72573	0.0923024	0.0199807	0.000309144	-0.297155	-0.0812531	0.325402	0.180434	-0.492112	-0.0358017	2.26174	2.07304	0.00322805	-0.0158239	-0.566252	-0.3495	0.105414	2.098	1.90164	0.0600457	-0.00212831
1.68333	-0.0188384	0.0166828	-0.206434	0.934867	1.03588	-0.60615	-0.253739	0.00677664	0.0454655	-0.407455	0.0128698	0.0777062	0.000156421	0.852127	-0.163679	-0.297129	-1.61717	0.0879989	0.0199807	0.000309144	-0.271949	-0.107549	0.320475	0.184539	-0.478306	-0.0138473	2.29827	2.07415	0.00322805	-0.0158239	-0.6101	-0.348084	0.0774414	2.12429	1.90513	0.0600457	-0.00212831
1.69167	-0.0275753	0.0360457	-0.196532	0.938091	1.04034	-0.60598	-0.301571	-0.0205191	0.00841697	-0.348273	-0.0821413	0.0777062	0.000156421	0.86525	-0.139005	-0.302724	-1.50125	0.0827544	0.0199807	0.000309144	-0.248897	-0.129132	0.311567	0.186706	-0.466206	0.0114455	2.33315	2.07323	0.00322805	-0.0158239	-0.653425	-0.344697	0.0491198	2.14875	1.90391	0.0600457	-0.00212831
1.7	-0.0352712	0.0503505	-0.183544	0.941211	1.04451	-0.606177	-0.34532	-0.0398714	-0.0332512	-0.301399	-0.167817	0.0777062	0.000156421	0.87112	-0.112746	-0.299196	-1.37893	0.0776277	0.0199807	0.000309144	-0.22883	-0.145046	0.300116	0.18643	-0.456391	0.0388701	2.36666	2.07053	0.00322805	-0.0158239	-0.694843	-0.339957	0.0218296	2.17143	1.89884	0.0600457	-0.00212831
1.70833	-0.0415767	0.0587921	-0.168431	0.944118	1.04832	-0.606645	-0.384423	-0.0507341	-0.0765022	-0.27042	-0.238822	0.0777062	0.000156421	0.869672	-0.0866917	-0.286516	-1.25163	0.0738169	0.0199807	0.000309144	-0.212416	-0.154687	0.287596	0.183104	-0.449272	0.0671303	2.39896	2.06642	0.00322805	-0.0158239	-0.732923	-0.334629	-0.00312798	2.19232	1.89104	0.0600457	-0.00212831
1.71667	-0.046159	0.0611159	-0.152205	0.946744	1.05173	-0.607281	-0.418448	-0.0535067	-0.118532	-0.258013	-0.291829	0.0777062	0.000156421	0.861043	-0.0626331	-0.265798	-1.12132	0.0724673	0.0199807	0.000309144	-0.200107	-0.157938	0.275363	0.176088	-0.445038	0.0949273	2.43	2.06145	0.00322805	-0.0158239	-0.766285	-0.329532	-0.0246537	2.21135	1.88179	0.0600457	-0.00212831
1.725	-0.0487274	0.0576867	-0.135823	0.949051	1.05466	-0.607997	-0.447002	-0.0494823	-0.157103	-0.265837	-0.325975	0.0777062	0.000156421	0.8457	-0.0420771	-0.239235	-0.990593	0.0744588	0.0199807	0.000309144	-0.192088	-0.155248	0.264519	0.164786	-0.443609	0.121015	2.45943	2.05636	0.00322805	-0.0158239	-0.7937	-0.325454	-0.041946	2.22834	1.8724	0.0600457	-0.00212831
1.73333	-0.04916	0.0494405	-0.120115	0.95102	1.05707	-0.608726	-0.469689	-0.0406309	-0.190721	-0.294521	-0.342773	0.0777062	0.000156421	0.824506	-0.0260056	-0.209817	-0.862571	0.0802017	0.0199807	0.000309144	-0.18828	-0.147619	0.255809	0.148714	-0.444614	0.144241	2.48665	2.05216	0.00322805	-0.0158239	-0.814181	-0.323066	-0.0545577	2.24305	1.86411	0.0600457	-0.00212831
1.74167	-0.0475229	0.0377848	-0.105691	0.952637	1.05892	-0.609428	-0.486104	-0.0292516	-0.218604	-0.343723	-0.345533	0.0777062	0.000156421	0.798706	-0.0147461	-0.180889	-0.740743	0.0894787	0.0199807	0.000309144	-0.188354	-0.136479	0.249547	0.127572	-0.447413	0.163593	2.51082	2.04999	0.00322805	-0.0158239	-0.827051	-0.32287	-0.0624032	2.2552	1.85792	0.0600457	-0.00212831
